<svg width="82" height="24" viewBox="0 0 82 24" fill="none" xmlns="http://www.w3.org/2000/svg">
<g clip-path="url(#clip0_9_34)">
<path d="M9.66184 0.8073V7.773H3.94849V0.8073H0V18.1959H3.94849V11.331H9.66184V18.1959H13.6103V0.8073H9.66184Z" fill="#101820"/>
<mask id="mask0_9_34" style="mask-type:luminance" maskUnits="userSpaceOnUse" x="0" y="0" width="82" height="24">
<path d="M82 0H0V24H82V0Z" fill="white"/>
</mask>
<g mask="url(#mask0_9_34)">
<path d="M24.9096 6.4092H28.6343V18.1941H24.9096V16.7061C24.469 17.2729 23.9035 17.7296 23.2574 18.0404C22.6113 18.3512 21.9023 18.5078 21.1858 18.4977C17.8897 18.4977 15.5747 15.9996 15.5747 12.3153C15.5747 8.6058 17.8897 6.1053 21.236 6.1053C22.6703 6.1053 24.1055 6.7353 24.9096 7.8222V6.4092ZM24.7837 12.3141C24.7878 11.9539 24.7206 11.5964 24.5858 11.2625C24.451 10.9286 24.2514 10.6248 23.9986 10.3689C23.7458 10.113 23.4448 9.91004 23.1131 9.77181C22.7814 9.63358 22.4256 9.56284 22.0664 9.5637C21.7073 9.55911 21.351 9.6275 21.019 9.76474C20.687 9.90198 20.3862 10.1052 20.1346 10.3622C19.883 10.6192 19.686 10.9247 19.5553 11.2601C19.4246 11.5956 19.363 11.9541 19.3742 12.3141C19.3705 12.6731 19.4384 13.0292 19.5737 13.3616C19.709 13.694 19.9091 13.996 20.1623 14.2498C20.4155 14.5036 20.7167 14.7042 21.0481 14.8397C21.3796 14.9753 21.7347 15.0432 22.0927 15.0393C22.8077 15.0286 23.4901 14.7373 23.9934 14.2278C24.4967 13.7183 24.7809 13.0313 24.7849 12.3141" fill="#101820"/>
<path d="M42.9016 11.8611V18.1941H39.1759V12.0882C39.1759 10.2714 38.0691 9.5649 37.138 9.5649C36.1314 9.5649 34.8736 10.0947 34.8736 12.063V18.1941H31.1494V6.4092H34.8733V8.4543C35.3261 6.8394 37.1628 6.1065 38.2459 6.1065C41.3658 6.1065 42.9016 8.2515 42.9016 11.8611Z" fill="#101820"/>
<path d="M57.1419 18.1956H52.6128L48.9885 13.4001V18.1956H45.2647V-0.000299931H48.9885V9.717L51.5045 6.4101H56.1855L51.7561 11.6337L57.1419 18.1956Z" fill="#101820"/>
<path d="M65.2668 6.411H69.2673L62.0194 23.9994H58.0443L60.939 16.7823L56.3094 6.411H60.4359L62.8764 12.5187L65.2668 6.411Z" fill="#101820"/>
<path d="M69.2422 12.3153C69.2422 8.5797 72.2634 6.1053 75.6079 6.1053C78.9525 6.1053 82 8.5782 82 12.3153C82 16.0248 78.9555 18.4977 75.6079 18.4977C72.2604 18.4977 69.2422 16.0248 69.2422 12.3153ZM72.0863 1.2615H79.2055V3.4569H72.0863V1.2615ZM78.202 12.3153C78.202 10.7004 77.0446 9.5649 75.6094 9.5649C74.1742 9.5649 73.019 10.7004 73.019 12.3153C73.019 13.9302 74.1763 15.0405 75.6094 15.0405C77.0425 15.0405 78.202 13.9302 78.202 12.3153Z" fill="#101820"/>
</g>
</g>
<defs>
<clipPath id="clip0_9_34">
<rect width="82" height="24" fill="white"/>
</clipPath>
</defs>
</svg>
