<svg width="77" height="23" viewBox="0 0 77 23" fill="none" xmlns="http://www.w3.org/2000/svg">
<g clip-path="url(#clip0_3_122)">
<path d="M64.03 11.71C64.03 8.16 66.91 5.81 70.1 5.81C73.29 5.81 76.2 8.16 76.2 11.71C76.2 15.26 73.3 17.59 70.1 17.59C66.9 17.59 64.03 15.24 64.03 11.71ZM66.74 3.29V1.2H73.53V3.29H66.74ZM72.58 11.71C72.58 10.17 71.48 9.09 70.11 9.09C68.74 9.09 67.64 10.17 67.64 11.71C67.64 13.25 68.74 14.3 70.11 14.3C71.48 14.3 72.58 13.24 72.58 11.71Z" fill="#00C256"/>
<path d="M60.41 6.10001H64.23L57.32 22.83H53.53L56.29 15.96L51.87 6.10001H55.81L58.14 11.91L60.42 6.10001H60.41Z" fill="#00C256"/>
<path d="M52.25 17.31H47.93L44.47 12.75V17.31H40.92V0H44.47V9.24L46.87 6.1H51.33L47.11 11.07L52.25 17.31Z" fill="#00C256"/>
<path d="M38.73 11.28V17.3H35.18V11.49C35.18 9.76 34.12 9.09 33.24 9.09C32.28 9.09 31.08 9.59 31.08 11.47V17.3H27.53V6.1H31.08V8.04C31.51 6.5 33.26 5.81 34.3 5.81C37.28 5.81 38.74 7.85 38.74 11.28H38.73Z" fill="#00C256"/>
<path d="M21.67 6.1H25.22V17.31H21.67V15.89C20.9 16.95 19.53 17.59 18.12 17.59C14.98 17.59 12.77 15.21 12.77 11.71C12.77 8.21 14.98 5.81 18.17 5.81C19.54 5.81 20.91 6.41 21.67 7.44V6.1ZM21.55 11.71C21.55 10.25 20.4 9.09 18.96 9.09C17.45 9.09 16.39 10.27 16.39 11.71C16.39 13.15 17.45 14.3 18.98 14.3C20.42 14.3 21.55 13.08 21.55 11.71Z" fill="#00C256"/>
<path d="M11.21 11.28V17.3H7.66V11.49C7.66 9.79 6.6 9.09 5.72 9.09C4.76 9.09 3.56 9.62 3.56 11.49V17.3H0V0H3.55V7.9C3.96 6.46 5.76 5.81 6.77 5.81C9.75 5.81 11.21 7.85 11.21 11.28Z" fill="#00C256"/>
</g>
<defs>
<clipPath id="clip0_3_122">
<rect width="76.2" height="22.83" fill="white"/>
</clipPath>
</defs>
</svg>
