<svg width="16" height="16" viewBox="0 0 16 16" fill="none" xmlns="http://www.w3.org/2000/svg">
<g clip-path="url(#clip0_220_191)">
<path d="M2.06348 10.2634C2.06348 6.8 4.87323 4.50732 7.98543 4.50732C11.0976 4.50732 13.9366 6.8 13.9366 10.2634C13.9366 13.7268 11.1074 16 7.98543 16C4.86348 16 2.06348 13.7073 2.06348 10.2634ZM4.70738 2.03902V0H11.3318V2.03902H4.70738ZM10.4049 10.2634C10.4049 8.76098 9.33177 7.70732 7.99518 7.70732C6.6586 7.70732 5.58543 8.76098 5.58543 10.2634C5.58543 11.7659 6.6586 12.7902 7.99518 12.7902C9.33177 12.7902 10.4049 11.7561 10.4049 10.2634Z" fill="black"/>
</g>
<defs>
<clipPath id="clip0_220_191">
<rect width="16" height="16" fill="white"/>
</clipPath>
</defs>
</svg>
