<svg width="16" height="16" viewBox="0 0 16 16" fill="none" xmlns="http://www.w3.org/2000/svg">
<g clip-path="url(#clip0_224_82)">
<g clip-path="url(#clip1_224_82)">
<path d="M16 0H0V16H16V0Z" fill="#F5F6F6"/>
<path d="M4.50854 9.33121C4.50854 7.29429 6.16103 5.94591 7.99139 5.94591C9.82175 5.94591 11.4915 7.29429 11.4915 9.33121C11.4915 11.3681 9.82749 12.705 7.99139 12.705C6.1553 12.705 4.50854 11.3567 4.50854 9.33121ZM6.06349 4.49424V3.29504H9.95946V4.49424H6.06349ZM9.41437 9.33121C9.41437 8.44759 8.78321 7.82791 7.99713 7.82791C7.21105 7.82791 6.57989 8.44759 6.57989 9.33121C6.57989 10.2148 7.21105 10.8173 7.99713 10.8173C8.78321 10.8173 9.41437 10.2091 9.41437 9.33121Z" fill="#171819"/>
</g>
</g>
<defs>
<clipPath id="clip0_224_82">
<rect width="16" height="16" fill="white"/>
</clipPath>
<clipPath id="clip1_224_82">
<rect width="16" height="16" fill="white"/>
</clipPath>
</defs>
</svg>
