<svg width="20" height="20" viewBox="0 0 20 20" fill="none" xmlns="http://www.w3.org/2000/svg">
<g clip-path="url(#clip0_21_2)">
<mask id="mask0_21_2" style="mask-type:luminance" maskUnits="userSpaceOnUse" x="0" y="0" width="20" height="20">
<path d="M20 0H0V20H20V0Z" fill="white"/>
</mask>
<g mask="url(#mask0_21_2)">
<path d="M20 0H0V20H20V0Z" fill="#1A8CFF"/>
<path fill-rule="evenodd" clip-rule="evenodd" d="M13.7071 7.29289C14.0976 7.68342 14.0976 8.31658 13.7071 8.70711L9.70711 12.7071C9.31658 13.0976 8.68342 13.0976 8.29289 12.7071L6.29289 10.7071C5.90237 10.3166 5.90237 9.68342 6.29289 9.29289C6.68342 8.90237 7.31658 8.90237 7.70711 9.29289L9 10.5858L12.2929 7.29289C12.6834 6.90237 13.3166 6.90237 13.7071 7.29289Z" fill="#FAFDFF"/>
</g>
</g>
<defs>
<clipPath id="clip0_21_2">
<rect width="20" height="20" fill="white"/>
</clipPath>
</defs>
</svg>
